<?xml version="1.0" encoding="UTF-8"?>
<svg xmlns="http://www.w3.org/2000/svg" width="144" height="30" viewBox="0 0 144 30" fill="none">
  <g clip-path="url(#clip0_399_341)">
    <path d="M0.556364 5.44874V0.0986328H2.45455C4.02545 0.0986328 5.10545 1.11614 5.10545 2.7901C5.10545 4.46406 4.02545 5.44874 2.45455 5.44874H0.556364ZM2.42182 4.33277C3.24 4.33277 3.89455 3.87325 3.89455 2.7901C3.89455 1.70695 3.24 1.24743 2.42182 1.24743H1.73455V4.36559H2.42182V4.33277Z" fill="#F7F6F7"></path>
    <path d="M8.11636 0.0986328H6.93818V5.44874H8.11636V0.0986328Z" fill="#F7F6F7"></path>
    <path d="M14.1709 5.44858L14.1055 4.92341C13.8764 5.25164 13.3855 5.57987 12.6327 5.57987C11.16 5.57987 9.94909 4.49672 9.94909 2.78993C9.94909 1.11597 11.1927 0 12.6982 0C14.2036 0 14.9236 0.919037 15.1527 1.64114L14.0073 2.03501C13.9091 1.70678 13.5818 1.08315 12.6982 1.08315C11.9782 1.08315 11.1273 1.57549 11.1273 2.75711C11.1273 3.87309 11.8473 4.4639 12.6982 4.4639C13.5818 4.4639 13.9418 3.90591 14.0073 3.57768H12.4364V2.593H15.12V5.44858H14.1709Z" fill="#F7F6F7"></path>
    <path d="M18.2618 0.0986328H17.0836V5.44874H18.2618V0.0986328Z" fill="#F7F6F7"></path>
    <path d="M22.7782 1.24743V5.44874H21.6V1.24743H19.9636V0.0986328H24.4145V1.24743H22.7782Z" fill="#F7F6F7"></path>
    <path d="M28.7673 4.36559H26.7382L26.3455 5.44874H25.1018L27.0982 0.0986328H28.4727L30.4364 5.44874H29.1273L28.7673 4.36559ZM27.0982 3.28244H28.3745L27.7527 1.44437L27.0982 3.28244Z" fill="#F7F6F7"></path>
    <path d="M32.04 5.44874V0.0986328H33.2182V4.33277H35.5091V5.44874H32.04Z" fill="#F7F6F7"></path>
    <path d="M42.6109 1.7395C42.5782 1.47692 42.3818 1.08304 41.7273 1.08304C41.3018 1.08304 41.0073 1.37845 41.0073 1.64103C41.0073 1.90361 41.1709 2.10055 41.5309 2.16619L42.2509 2.29748C43.2655 2.49442 43.7891 3.15088 43.7891 3.9058C43.7891 4.75919 43.1018 5.57976 41.8255 5.57976C40.3527 5.57976 39.7309 4.6279 39.6655 3.87298L40.7455 3.61039C40.7782 4.10274 41.1055 4.52943 41.8255 4.52943C42.2836 4.52943 42.5782 4.29967 42.5782 3.97145C42.5782 3.70886 42.3491 3.51193 42.0218 3.44628L41.3018 3.31499C40.4182 3.15088 39.8618 2.52724 39.8618 1.7395C39.8618 0.721993 40.7455 0.0327148 41.76 0.0327148C43.0691 0.0327148 43.5927 0.820461 43.6909 1.44409L42.6109 1.7395Z" fill="#F7F6F7"></path>
    <path d="M47.9127 1.24743V5.44874H46.7345V1.24743H45.0982V0.0986328H49.5491V1.24743H47.9127Z" fill="#F7F6F7"></path>
    <path d="M51.2182 3.54502V0.0986328H52.3964V3.41373C52.3964 4.07019 52.7564 4.39841 53.3127 4.39841C53.8691 4.39841 54.2291 4.07019 54.2291 3.41373V0.0986328H55.4073V3.5122C55.4073 4.85793 54.4909 5.58003 53.3127 5.58003C52.1345 5.58003 51.2182 4.89076 51.2182 3.54502Z" fill="#F7F6F7"></path>
    <path d="M57.4691 5.44874V0.0986328H60.8727V1.24743H58.6473V2.3634H60.6109V3.47938H58.6473V5.44874H57.4691Z" fill="#F7F6F7"></path>
    <path d="M62.6727 5.44874V0.0986328H66.0764V1.24743H63.8509V2.3634H65.8145V3.47938H63.8509V5.44874H62.6727Z" fill="#F7F6F7"></path>
    <path d="M10.44 29.5076C8.28 29.5076 6.41455 29.1794 4.84364 28.5558C1.70182 27.2757 0 24.6499 0 20.3829V20.3173C0 18.3479 0.425454 16.7068 1.37455 15.2954C3.17455 12.5055 6.48 10.9956 10.7345 10.9956C12.6982 10.9956 14.3673 11.291 15.9055 11.849C18.9491 13.0306 20.88 15.3282 21.2727 18.9715H14.8582C14.5964 17.2976 13.2545 16.1816 10.7345 16.1816C7.82182 16.1816 6.08727 17.4945 6.08727 20.2844V20.3173C6.08727 23.0087 7.75636 24.3216 10.6364 24.3216C13.3855 24.3216 14.6945 23.14 14.8909 21.302H21.3055C20.8145 26.7177 16.9855 29.5076 10.44 29.5076Z" fill="#F7F6F7"></path>
    <path d="M29.2582 28.4901C26.4109 27.1444 25.1345 24.2888 25.1345 19.6608V11.4551H31.2218V19.5951C31.2218 22.9102 32.4327 24.0262 34.7891 24.0262C37.1127 24.0262 38.2582 22.943 38.2582 19.5951V11.4551H44.3782V19.6608C44.3782 21.9912 44.0182 23.8621 43.2655 25.3391C41.76 28.2275 38.88 29.5076 34.7564 29.5076C32.5309 29.5076 30.6982 29.1794 29.2582 28.4901Z" fill="#F7F6F7"></path>
    <path d="M60.3164 29.0153H54.2945V16.6083H48.6327V11.4551H66.1745V16.6083H60.3164V29.0153Z" fill="#F7F6F7"></path>
    <path d="M79.6255 15.7222C78.1527 15.7222 76.9091 16.0832 76.0255 16.8381C75.1418 17.6259 74.6509 18.8075 74.6836 20.3174V20.3502C74.6836 21.7944 75.1418 22.9432 76.0255 23.6981C76.9091 24.453 78.1527 24.8141 79.5927 24.8141C81.0327 24.8141 82.2764 24.5187 83.1927 23.7637C84.1091 23.0088 84.5673 21.86 84.5673 20.3502C84.5673 18.8075 84.1091 17.5931 83.1927 16.8381C82.3418 16.0504 81.0982 15.7222 79.6255 15.7222ZM82.6036 23.0088C81.9491 23.534 80.9673 23.8294 79.6255 23.8294C78.3164 23.8294 77.3345 23.534 76.68 22.976C76.0582 22.418 75.6655 21.5974 75.6655 20.3502V20.3174C75.6655 19.0044 76.0582 18.1511 76.68 17.5931C77.3345 17.0351 78.3164 16.7069 79.6255 16.7069C80.9345 16.7069 81.9164 17.0023 82.5709 17.5602C83.2255 18.1182 83.5855 19.0044 83.6182 20.3502C83.6182 21.6631 83.2255 22.4837 82.6036 23.0088Z" fill="#F7F6F7"></path>
    <path d="M89.2473 15C88.3309 13.5558 86.9891 12.4399 85.32 11.6521C83.6836 10.8972 81.7855 10.5361 79.6909 10.5361C75.3709 10.5361 71.9345 12.0788 70.0364 15.0329C69.0873 16.4771 68.6291 18.2495 68.6291 20.2845V20.3501C68.6291 22.5164 69.0873 24.3217 69.9709 25.7659C70.8545 27.2101 72.1964 28.2604 73.8655 28.9497C75.5345 29.639 77.4655 29.9672 79.6582 29.9672C81.8182 29.9672 83.7491 29.639 85.3855 28.9497C87.0218 28.2604 88.3636 27.1773 89.28 25.7331C90.2291 24.256 90.6873 22.4836 90.6873 20.3501V20.2517C90.6873 18.2167 90.1964 16.4442 89.2473 15ZM89.7055 20.383C89.7055 22.3851 89.28 23.9606 88.4618 25.2407C87.6436 26.5208 86.4982 27.4399 84.9927 28.0963C83.52 28.7199 81.72 29.0482 79.6255 29.0482C77.5309 29.0482 75.7309 28.7528 74.1927 28.0963C72.6873 27.4727 71.5418 26.5536 70.7564 25.2736C69.9709 24.0263 69.5455 22.3851 69.5455 20.3501V20.3173C69.5455 18.4464 70.0036 16.8709 70.8218 15.5908C72.5236 12.965 75.5673 11.5208 79.6582 11.5208C81.6545 11.5208 83.4218 11.8819 84.8945 12.5383C86.4 13.2276 87.5782 14.2451 88.3964 15.5252C89.2145 16.8053 89.64 18.3808 89.6727 20.2845V20.383H89.7055Z" fill="#F7F6F7"></path>
    <path d="M117.949 10.9629L114.513 20.4487L111.011 10.9629H105.611L101.585 20.4487L98.8364 10.9629H91.6364L97.4945 29.5077H103.811L103.942 29.2123L108.033 19.8907L111.567 29.5077H117.818L125.051 10.9629H117.949ZM117.164 28.5231H112.255L108.131 17.2649L103.222 28.5231H98.2473L92.9455 11.9476H98.0509L101.356 23.3699L106.2 11.9476H110.258L114.513 23.3042L118.636 11.9476H123.644L117.164 28.5231Z" fill="#F7F6F7"></path>
    <path d="M134.149 23.0088V10.9629H127.08V11.4552V29.5077H144V23.0088H134.149ZM128.062 28.5231V11.9476H133.2V23.9935H143.018V28.5231H128.062Z" fill="#F7F6F7"></path>
  </g>
  <defs>
    <clipPath id="clip0_399_341">
      <rect width="144" height="30" fill="white"></rect>
    </clipPath>
  </defs>
</svg>
