<?xml version="1.0" encoding="UTF-8"?>
<svg xmlns="http://www.w3.org/2000/svg" width="144" height="30" viewBox="0 0 144 30" fill="none">
  <path d="M0.556641 5.44857V0.098465H2.45482C4.02573 0.098465 5.10573 1.11597 5.10573 2.78993C5.10573 4.46389 4.02573 5.44857 2.45482 5.44857H0.556641ZM2.4221 4.3326C3.24028 4.3326 3.89482 3.87308 3.89482 2.78993C3.89482 1.70678 3.24028 1.24726 2.4221 1.24726H1.73482V4.36542H2.4221V4.3326Z" fill="#192126"></path>
  <path d="M8.11666 0.098465H6.93848V5.44857H8.11666V0.098465Z" fill="#192126"></path>
  <path d="M14.171 5.44858L14.1056 4.92341C13.8765 5.25164 13.3856 5.57987 12.6329 5.57987C11.1601 5.57987 9.94922 4.49672 9.94922 2.78993C9.94922 1.11597 11.1929 0 12.6983 0C14.2038 0 14.9238 0.919037 15.1529 1.64114L14.0074 2.03501C13.9092 1.70678 13.5819 1.08315 12.6983 1.08315C11.9783 1.08315 11.1274 1.57549 11.1274 2.75711C11.1274 3.87309 11.8474 4.4639 12.6983 4.4639C13.5819 4.4639 13.9419 3.90591 14.0074 3.57768H12.4365V2.593H15.1201V5.44858H14.171Z" fill="#192126"></path>
  <path d="M18.2622 0.098465H17.084V5.44857H18.2622V0.098465Z" fill="#192126"></path>
  <path d="M22.7784 1.24726V5.44857H21.6002V1.24726H19.9639V0.098465H24.4148V1.24726H22.7784Z" fill="#192126"></path>
  <path d="M28.768 4.36542H26.7389L26.3462 5.44857H25.1025L27.0989 0.098465H28.4734L30.4371 5.44857H29.128L28.768 4.36542ZM27.0989 3.28227H28.3753L27.7535 1.4442L27.0989 3.28227Z" fill="#192126"></path>
  <path d="M32.04 5.44857V0.098465H33.2182V4.3326H35.5091V5.44857H32.04Z" fill="#192126"></path>
  <path d="M42.6115 1.7396C42.5787 1.47702 42.3824 1.08315 41.7278 1.08315C41.3024 1.08315 41.0078 1.37855 41.0078 1.64114C41.0078 1.90372 41.1715 2.10066 41.5315 2.1663L42.2515 2.29759C43.266 2.49453 43.7897 3.15098 43.7897 3.90591C43.7897 4.7593 43.1024 5.57987 41.826 5.57987C40.3533 5.57987 39.7315 4.62801 39.666 3.87308L40.746 3.6105C40.7787 4.10284 41.106 4.52954 41.826 4.52954C42.2842 4.52954 42.5787 4.29978 42.5787 3.97155C42.5787 3.70897 42.3497 3.51203 42.0224 3.44639L41.3024 3.3151C40.4187 3.15098 39.8624 2.52735 39.8624 1.7396C39.8624 0.7221 40.746 0.0328217 41.7606 0.0328217C43.0697 0.0328217 43.5933 0.820568 43.6915 1.4442L42.6115 1.7396Z" fill="#192126"></path>
  <path d="M47.9132 1.24726V5.44857H46.735V1.24726H45.0986V0.098465H49.5495V1.24726H47.9132Z" fill="#192126"></path>
  <path d="M51.2188 3.54485V0.098465H52.3969V3.41356C52.3969 4.07002 52.7569 4.39825 53.3133 4.39825C53.8697 4.39825 54.2297 4.07002 54.2297 3.41356V0.098465H55.4078V3.51203C55.4078 4.85776 54.4915 5.57987 53.3133 5.57987C52.1351 5.57987 51.2188 4.89059 51.2188 3.54485Z" fill="#192126"></path>
  <path d="M57.4697 5.44857V0.098465H60.8734V1.24726H58.6479V2.36323H60.6115V3.47921H58.6479V5.44857H57.4697Z" fill="#192126"></path>
  <path d="M62.6729 5.44857V0.098465H66.0765V1.24726H63.851V2.36323H65.8147V3.47921H63.851V5.44857H62.6729Z" fill="#192126"></path>
  <path d="M10.44 29.5077C8.28 29.5077 6.41455 29.1794 4.84364 28.5558C1.70182 27.2757 0 24.6499 0 20.3829V20.3173C0 18.3479 0.425454 16.7068 1.37455 15.2954C3.17455 12.5055 6.48 10.9956 10.7345 10.9956C12.6982 10.9956 14.3673 11.291 15.9055 11.849C18.9491 13.0306 20.88 15.3282 21.2727 18.9716H14.8582C14.5964 17.2976 13.2545 16.1816 10.7345 16.1816C7.82182 16.1816 6.08727 17.4945 6.08727 20.2845V20.3173C6.08727 23.0088 7.75636 24.3217 10.6364 24.3217C13.3855 24.3217 14.6945 23.14 14.8909 21.302H21.3055C20.8145 26.7177 16.9855 29.5077 10.44 29.5077Z" fill="#192126"></path>
  <path d="M29.2584 28.4902C26.4111 27.1444 25.1348 24.2888 25.1348 19.6608V11.4551H31.222V19.5952C31.222 22.9103 32.4329 24.0263 34.7893 24.0263C37.1129 24.0263 38.2584 22.9431 38.2584 19.5952V11.4551H44.3784V19.6608C44.3784 21.9912 44.0184 23.8621 43.2657 25.3392C41.7602 28.2276 38.8802 29.5077 34.7566 29.5077C32.5311 29.5077 30.6984 29.1794 29.2584 28.4902Z" fill="#192126"></path>
  <path d="M60.3164 29.0153H54.2946V16.6083H48.6328V11.4551H66.1746V16.6083H60.3164V29.0153Z" fill="#192126"></path>
  <path d="M79.625 15.7221C78.1523 15.7221 76.9086 16.0831 76.025 16.8381C75.1414 17.6258 74.6505 18.8074 74.6832 20.3173V20.3501C74.6832 21.7943 75.1414 22.9431 76.025 23.698C76.9086 24.4529 78.1523 24.814 79.5923 24.814C81.0323 24.814 82.2759 24.5186 83.1923 23.7637C84.1086 23.0087 84.5668 21.8599 84.5668 20.3501C84.5668 18.8074 84.1086 17.593 83.1923 16.8381C82.3414 16.0503 81.0977 15.7221 79.625 15.7221ZM82.6032 23.0087C81.9486 23.5339 80.9668 23.8293 79.625 23.8293C78.3159 23.8293 77.3341 23.5339 76.6795 22.9759C76.0577 22.4179 75.665 21.5974 75.665 20.3501V20.3173C75.665 19.0044 76.0577 18.151 76.6795 17.593C77.3341 17.035 78.3159 16.7068 79.625 16.7068C80.9341 16.7068 81.9159 17.0022 82.5705 17.5602C83.225 18.1182 83.585 19.0044 83.6177 20.3501C83.6177 21.663 83.225 22.4836 82.6032 23.0087Z" fill="#192126"></path>
  <path d="M89.2471 15C88.3307 13.5558 86.9889 12.4398 85.3198 11.6521C83.6835 10.8972 81.7853 10.5361 79.6907 10.5361C75.3707 10.5361 71.9344 12.0788 70.0362 15.0328C69.0871 16.477 68.6289 18.2495 68.6289 20.2845V20.3501C68.6289 22.5164 69.0871 24.3217 69.9707 25.7659C70.8544 27.2101 72.1962 28.2604 73.8653 28.9497C75.5344 29.6389 77.4653 29.9672 79.658 29.9672C81.818 29.9672 83.7489 29.6389 85.3853 28.9497C87.0216 28.2604 88.3634 27.1772 89.2798 25.733C90.2289 24.256 90.6871 22.4836 90.6871 20.3501V20.2516C90.6871 18.2166 90.1962 16.4442 89.2471 15ZM89.7053 20.3829C89.7053 22.3851 89.2798 23.9606 88.4616 25.2407C87.6434 26.5208 86.498 27.4398 84.9925 28.0963C83.5198 28.7199 81.7198 29.0481 79.6253 29.0481C77.5307 29.0481 75.7307 28.7527 74.1925 28.0963C72.6871 27.4726 71.5416 26.5536 70.7562 25.2735C69.9707 24.0263 69.5453 22.3851 69.5453 20.3501V20.3173C69.5453 18.4464 70.0035 16.8709 70.8216 15.5908C72.5235 12.965 75.5671 11.5208 79.658 11.5208C81.6544 11.5208 83.4216 11.8818 84.8944 12.5383C86.3998 13.2276 87.578 14.2451 88.3962 15.5252C89.2144 16.8052 89.6398 18.3807 89.6725 20.2845V20.3829H89.7053Z" fill="#192126"></path>
  <path d="M117.949 10.9628L114.513 20.4486L111.011 10.9628H105.611L101.586 20.4486L98.8367 10.9628H91.6367L97.4949 29.5077H103.811L103.942 29.2122L108.033 19.8906L111.568 29.5077H117.819L125.051 10.9628H117.949ZM117.164 28.523H112.255L108.131 17.2648L103.222 28.523H98.2476L92.9458 11.9475H98.0513L101.357 23.3698L106.2 11.9475H110.259L114.513 23.3042L118.637 11.9475H123.644L117.164 28.523Z" fill="#192126"></path>
  <path d="M134.149 23.0087V10.9628H127.08V11.4551V29.5077H144V23.0087H134.149ZM128.062 28.523V11.9475H133.2V23.9934H143.018V28.523H128.062Z" fill="#192126"></path>
</svg>
